<svg xmlns="http://www.w3.org/2000/svg" width="765.337" height="128.875" viewBox="0 0 765.337 128.875">
  <g id="BANNER_LOGO" data-name="BANNER LOGO" transform="translate(-0.054)">
    <path id="Path_1" data-name="Path 1" d="M460.791,125.24c-3.849,0-7.7-.154-11.548-.154-3.849-.154-7.7-.154-11.548-.154H433.23a28.2,28.2,0,0,1-8.007-1.386c-6-1.848-9.7-7.083-10.008-13.858-.308-6,1.078-11.856,2.464-17.861.462-1.694.77-3.541,1.232-5.235,4.465-21.094,8.777-41.727,13.4-62.205,2.464-10.778,7.853-17.4,16.475-20.324,4.927-1.694,10.624-2,14.473-2.156,4.465-.154,8.93-.308,13.549-.308,4.311,0,8.777,0,13.4.154,8.777.308,17.4.77,25.406,4.157,23.1,9.392,26.021,31.1,25.713,43.112-.462,19.709-9.854,42.189-23.25,55.892a64.33,64.33,0,0,1-36.03,18.631A105.919,105.919,0,0,1,460.791,125.24Zm-8.315-6h11.7c2.771,0,5.081,0,7.237-.154a62.34,62.34,0,0,0,32.026-9.854c14.165-9.084,23.4-22.48,28.485-40.957,3.387-12.318,4.157-22.326,2.31-31.718C530.849,19.153,518.685,9.3,499.13,8.221c-6.775-.462-13.4-.462-19.093-.462H464.179a50.826,50.826,0,0,0-10.778.77c-8.468,1.54-13.55,7.545-15.859,17.861-5.235,23.712-9.392,43.728-13.4,62.667-1.232,6-2.156,12.472-3.079,20.324-.462,4.311,1.848,7.545,6.467,8.93a21.34,21.34,0,0,0,6.159.924h8.161C443.854,119.389,452.477,119.235,452.477,119.235Z" transform="translate(224.051 0.864)" fill="#e0ff04"/>
    <path id="Path_2" data-name="Path 2" d="M18.294,128.1a19.7,19.7,0,0,1-10.008-2.464c-4.157-2.31-6.621-5.851-7.853-11.24-.924-4.311,0-8.622,1.078-13.088.308-1.078.462-2.31.77-3.387,3.387-16.475,6.929-33.258,10.47-49.271,1.694-8.161,3.387-16.167,5.235-24.328,2-10.162,6.621-16.783,14.319-20.94A25.2,25.2,0,0,1,43.853.454,19.127,19.127,0,0,1,56.787,4.919C61.56,9.23,63.1,15.081,61.56,23.242c-.308,1.386-.462,2.925-.77,4.465l-.77,3.7-1.848,7.391L74.494,24.628l6.929-6c5.081-4.465,10.47-9.238,15.859-13.55C101.285,1.84,105.442.3,109.446.3a18.549,18.549,0,0,1,7.853,2,16.655,16.655,0,0,1,8.622,11.24,15.929,15.929,0,0,1-3.7,13.4,124.09,124.09,0,0,1-11.086,10.932c-1.54,1.386-3.233,2.772-4.773,4.311-2.772,2.618-9.084,8.007-12.01,10.624-.154.154,1.386,3.387,2.156,4.927,1.848,4.157,3.541,8.315,5.389,12.626,3.387,8.161,6.929,16.629,10.778,24.79,6,13.088-1.54,23.4-10.47,28.793a25.277,25.277,0,0,1-13.242,4,19.112,19.112,0,0,1-4.157-.462,15.973,15.973,0,0,1-12.318-9.7l-3.7-8.622c-3.079-7.083-6.313-14.319-9.238-21.4C59.1,86.679,57.095,81.6,57.095,81.6c-1.386.77-5.543,4.619-6.621,5.235-4.157,2.772-3.7,5.851-4.465,9.238-1.232,6-2.772,12.472-5.389,18.169C36.924,122.4,27.84,128.1,18.294,128.1ZM63.562,83.6c4.465,10.316,9.238,21.094,13.7,31.718A11.028,11.028,0,0,0,88.043,122.4h.616a18.74,18.74,0,0,0,5.851-1.078c6.159-2,10.778-5.851,12.78-10.624s1.694-10.316-1.232-16.475c-4.311-9.084-8.315-18.477-12.164-27.715-2-4.773-4-9.7-6.159-14.473,0-.308,0-.462,0-.616l.308-.308c6.313-5.543,12.626-11.086,18.477-16.321l1.694-1.54c2.925-2.618,6-5.389,8.776-8.315,3.849-4.157,4.465-10.316,1.232-14.627a10.326,10.326,0,0,0-8.622-4,13.126,13.126,0,0,0-5.389,1.232,15.34,15.34,0,0,0-3.7,2.156C88.505,20.009,78.651,28.477,69.567,36.484c-6,5.235-11.856,10.316-17.707,15.551L49.088,54.5c.462-2,.77-4,1.232-5.851,2-9.392,4.157-19.093,5.7-28.639.77-4.157.154-7.391-1.694-9.7S49.4,6.767,44.931,6.459H43.853c-10.162,0-17.861,6.775-20.17,17.553s-4.619,21.4-6.775,32.026c-2,8.93-3.849,17.707-5.7,26.637C9.363,90.99,7.67,99.767,5.976,108.543c-1.386,6.775,2,11.856,8.776,13.242a16.443,16.443,0,0,0,3.849.462h0A19.123,19.123,0,0,0,36.924,108.7a143.208,143.208,0,0,0,3.849-15.551l.616-2.772a8.064,8.064,0,0,1,2.618-4.927c4-3.387,8.007-6.929,12.164-10.624l2.618-2.31C58.789,72.667,63.562,83.6,63.562,83.6Z" transform="translate(0 0.162)" fill="#e0ff04"/>
    <path id="Path_3" data-name="Path 3" d="M349.879,127.234a21.758,21.758,0,0,1-10.008-2.31,15.107,15.107,0,0,1-7.7-15.705c1.848-10.624,4.157-21.248,6.313-31.564l1.232-5.851c3.233-15.4,6.621-31.257,10.162-46.808,1.848-8.161,5.081-13.7,10.47-17.553a25.559,25.559,0,0,1,14.012-5.081c3.079-.154,6.467-.154,10.624-.154H400.69c2.925,0,5.851,0,8.622-.154,2.925,0,5.7-.154,8.623-.154,4,0,7.391.154,10.47.308,14.319,1.232,23.4,6.159,28.331,16.013,5.081,9.854,4.157,20.17-2.618,32.18-2.618,4.619-7.237,10.316-11.7,13.242-1.54.924-4.311,2.31-4.311,2.31a33.245,33.245,0,0,1,4.619,3.233c4.619,4.619,4.927,10.624,4.465,16.321-.154,2.925-.462,5.7-.77,8.622-.308,3.387-.616,6.775-.924,10.316-1.078,16.629-13.858,22.48-24.482,22.48h-.154c-9.546,0-15.4-3.387-17.861-10.008-1.078-3.233-1.078-7.083-.924-10.778v-2.618c0-2.772.308-5.543.462-8.469L403,90.434a5.952,5.952,0,0,0-1.386-4.773,6.279,6.279,0,0,0-4.311-2c-4.619-.308-8.468-.462-12.01-.462H379.75s-.616,3.079-1.078,4.465a83.273,83.273,0,0,0-1.848,8.469c-1.078,4.773-2.156,9.854-3.7,14.473C369.434,122.153,358.81,127.234,349.879,127.234ZM387.6,77.5c2.618,0,4.773,0,6.775.154,5.389.154,9.238,1.694,11.7,4.465,2.31,2.618,3.233,6.467,2.772,11.24-.616,6-.924,12.318-1.232,17.707a8.2,8.2,0,0,0,5.851,8.776,22.178,22.178,0,0,0,7.853,1.386c9.084,0,18.477-5.543,18.631-17.861a164.193,164.193,0,0,1,1.386-16.783c1.386-9.392-1.078-14.473-9.085-18.939-.924-.616-3.233-1.694-4.157-2.156l5.235-2.618c5.235-2,11.086-4.927,14.166-10.932,3.079-6.159,5.081-10.162,6-15.4,2.771-15.4-3.541-24.79-19.093-27.869-6.621-1.386-13.55-1.386-20.17-1.386h-6.775c-6.467,0-13.088.154-19.4.154-3.7,0-7.391.154-11.086.154-11.086.154-18.631,6-20.94,16.783-3.849,16.937-7.391,34.182-10.932,50.811L342.8,86.123c-.308,1.694-.77,3.233-1.078,4.927-1.232,5.7-2.618,11.7-3.387,17.707-.616,3.849,0,6.775,1.694,8.776,1.54,2,3.849,3.079,7.083,3.541a26.093,26.093,0,0,0,3.387.154c9.7,0,16.475-5.7,18.939-15.859,1.848-7.853,3.541-15.705,5.081-23.4l.77-4c0-.308.154-.462.154-.616h7.545A41.864,41.864,0,0,0,387.6,77.5Z" transform="translate(179.143 1.025)" fill="#e0ff04"/>
    <path id="Path_4" data-name="Path 4" d="M265,124.978H227.279c-8.776-.154-14.935-4.465-16.629-11.548a27.3,27.3,0,0,1-.154-11.7c4.927-24.02,10.162-48.809,16.167-76.063C228.819,15.812,232.976,9.5,239.6,6.111A28.159,28.159,0,0,1,251.453,2.57c9.7-.462,20.17-.77,30.795-.77h10.008c7.853.154,16.783.462,25.252,3.7,10.778,4.311,16.167,11.7,16.013,22.326-.154,11.394-4,20.478-11.548,26.945-1.232.924-5.851,4.311-5.851,4.311a65.66,65.66,0,0,1,5.389,4c5.543,6.159,7.237,13.7,5.389,23.1-4,20.324-18.323,33.72-40.187,37.569a94.769,94.769,0,0,1-13.088,1.232Zm-34.49-5.7h24.174c7.083,0,12.934,0,18.323-.154a77.617,77.617,0,0,0,16.321-2c15.551-3.7,25.713-12.318,30.179-25.714,4.927-14.935,1.386-25.252-11.24-32.488,1.848-1.078,3.387-2.156,5.235-3.079,6.775-3.849,10.932-9.238,12.472-16.321a12.826,12.826,0,0,1,.616-2.31,29.144,29.144,0,0,0,.77-3.541c1.232-6.467.154-11.856-3.079-16.167-3.849-5.081-10.778-8.315-19.709-9.084-6.159-.616-12.934-.77-20.94-.77-6.005,0-12.01.154-18.015.308-4.773.154-9.854.308-14.627.308-5.389,0-10.008,2.31-12.626,6.313a39.766,39.766,0,0,0-5.543,11.7c-2,8.007-3.7,16.167-5.389,24.174-.462,2-.77,4-1.232,6l-1.694,8.315c-2.771,13.4-5.7,27.253-8.314,40.8-.77,4-.154,7.237,1.694,9.7s5.081,3.849,9.546,4.157h2Z" transform="translate(113.28 0.972)" fill="#e0ff04"/>
    <path id="Path_5" data-name="Path 5" d="M132.868,128.875a60.273,60.273,0,0,1-24.02-4.773c-17.245-7.083-26.483-20.17-27.407-38.955-1.232-25.1,7.237-46.5,25.1-63.745,11.7-11.24,26.791-18.323,44.5-20.786A61.421,61.421,0,0,1,160.121,0a60.249,60.249,0,0,1,27.561,6.775c12.934,6.621,20.786,17.707,23.4,32.95.308,2,.462,4.157.616,6.313,0,.924.154,2,.154,2.925-1.232,23.712-8.93,42.5-23.558,57.432-11.24,11.394-25.559,18.477-42.958,21.4A67.093,67.093,0,0,1,132.868,128.875ZM159.659,5.851a72.438,72.438,0,0,0-26.637,5.081,68.907,68.907,0,0,0-38.031,35.26A77.754,77.754,0,0,0,87.138,87.3c.924,10.624,5.389,19.247,13.088,25.56,6.929,5.7,15.551,8.776,26.175,9.854a66.965,66.965,0,0,0,7.853.308c18.939,0,35.26-6.467,48.655-19.247,17.861-17.091,25.406-38.647,22.326-64.053-1.232-10.47-6.775-19.4-16.013-25.713-7.853-5.389-17.707-8.161-29.563-8.161Z" transform="translate(43.864 0)" fill="#e0ff04"/>
    <path id="Path_6" data-name="Path 6" d="M309.748,127.99a17.64,17.64,0,0,1-15.551-8.469c-2.31-4-2.925-8.622-1.54-14.627,2.156-9.854,4.157-19.709,6.313-29.563,3.233-14.781,6.313-29.563,9.546-44.344l.462-2c1.386-6.313,2.618-12.318,6.159-17.553A26.057,26.057,0,0,1,335.769.5a20.905,20.905,0,0,1,4.465.462c9.854,2.156,14.319,9.238,13.242,21.4l-1.386,6.929c-1.232,6.159-2.771,13.4-4.311,20.632l-3.233,15.243c-2.925,13.55-5.851,27.561-8.93,41.111-2.464,11.24-9.084,18.323-19.555,20.94A28.34,28.34,0,0,1,309.748,127.99ZM336.077,6.2a19.477,19.477,0,0,0-4.311.462c-8.469,1.694-13.7,7.391-15.859,16.937-4.927,22.942-9.7,45.422-15.089,70.52-.154.924-.462,1.848-.616,2.925a115.873,115.873,0,0,0-2.31,13.088c-.616,6.313,2.464,10.624,8.468,11.7a19.114,19.114,0,0,0,4.157.462c9.546,0,17.4-6.467,19.555-16.013,4-18.169,7.853-36.646,11.7-54.66l2.771-12.934c1.078-4.773,2-9.392,2.772-13.242l.924-4.311v-.308c0-8.315-1.386-13.088-8.777-14.166A13.734,13.734,0,0,0,336.077,6.2Z" transform="translate(157.531 0.27)" fill="#e0ff04"/>
    <path id="Path_7" data-name="Path 7" d="M186.835,128.044a26.9,26.9,0,0,1-8.93-1.694c-6.775-2.618-10.932-10.932-9.392-18.785,3.849-18.631,9.084-43.42,14.473-68.21.308-1.232.462-2.464.77-3.7a123.593,123.593,0,0,1,5.389-20.016C192.532,6.867,201.924.4,211.779.4A23.5,23.5,0,0,1,216.4.862c9.854,2.156,13.858,8.007,13.858,20.016l-.77,3.7c-.77,3.849-1.848,8.776-2.771,13.858l-.462,2.31c-4.619,21.4-9.238,43.42-14.012,65.131-1.694,7.545-5.081,13.088-10.316,16.783C196.843,126.35,191.916,128.044,186.835,128.044ZM212.7,6.251c-10.778,0-18.015,6.159-20.478,17.245-2,9.084-4,18.323-5.851,27.253l-2.31,10.624-2.618,12.01c-2.31,10.932-4.773,22.326-7.083,33.566-.924,4.465-.154,8.469,2.156,11.394a11.55,11.55,0,0,0,9.238,4h0a30.07,30.07,0,0,0,3.541-.308c9.854-1.848,15.4-7.7,17.553-18.015,2.771-13.4,5.7-26.637,8.468-40.033,1.848-8.776,3.7-17.553,5.7-26.329.924-4.465,1.848-8.93,2.618-12.626l.77-4.157V20.57c0-10.162-3.387-14.319-11.7-14.319Z" transform="translate(90.749 0.216)" fill="#e0ff04"/>
    <path id="Path_8" data-name="Path 8" d="M440.1,85.007c2.618-11.856,5.081-23.866,7.7-35.876l2.618-12.472.77-3.7c.77-3.849,1.54-7.7,2.618-11.548,0-.154.308-.462.462-.616h5.543a73.823,73.823,0,0,1,12.934.77c12.318,1.848,18.015,9.546,16.937,22.634a65.846,65.846,0,0,1-6.467,24.328c-5.235,10.162-13.858,15.551-26.176,16.475-.77,0-1.694.154-2.771.154H443.949a28.511,28.511,0,0,1-3.849-.154ZM458.423,26.5s-.154.77-.924,4.773c-.308,1.848-.77,3.7-1.232,5.543-.308,1.078-.462,2.156-.77,3.233-2.464,11.24-4.773,22.48-7.237,33.72-.308,1.078-1.232,6-1.232,6s6.621.154,7.853.154c7.545,0,16.783-4.311,20.478-9.7,6.005-8.469,7.391-18.477,8.469-26.483v-.308c0-10.316-3.08-14.627-11.548-16.167-2-.308-4.157-.462-6.159-.616-1.078,0-2-.154-3.079-.154A46.191,46.191,0,0,1,458.423,26.5Z" transform="translate(237.506 11.226)" fill="#e0ff04"/>
    <path id="Path_9" data-name="Path 9" d="M382.516,48.731H362.5c1.848-8.622,4-17.707,5.851-26.945.308-1.386.308-1.386,1.54-1.386h.154c4.157.154,8.315.154,11.7.154h11.086a15.835,15.835,0,0,1,2.618.154c8.776,1.694,10.162,5.851,10.47,9.238.462,5.851-1.848,13.088-8.161,16.013-3.387,1.54-7.7,2.156-11.394,2.618A28.517,28.517,0,0,1,382.516,48.731Zm-8.93-22.942s-.616,2-1.54,6.467c-.154.616-.308,1.232-.462,2a4.5,4.5,0,0,0-.308,1.386c-.616,2.925-1.232,7.237-1.232,7.237s4.619.308,6.313.308h9.854a19.113,19.113,0,0,0,4.157-.462h.154a10.028,10.028,0,0,0,9.392-10.316c0-3.849-2.156-6.313-6.005-6.313-1.54,0-3.079,0-4.619-.154-3.08,0-6.313-.154-9.392-.308C379.591,25.789,373.586,25.789,373.586,25.789Z" transform="translate(195.623 11.01)" fill="#e0ff04"/>
    <path id="Path_10" data-name="Path 10" d="M247.8,74.369H234.4l.77-3.541c1.078-4.927,2-9.854,3.079-14.627.308-1.232.462-2.464.77-3.541.462-1.848.924-3.849,1.232-5.851,0-.154,0-.308.154-.308h14.473c3.7,0,6.621,0,9.238.154,7.545.154,13.088,4.465,13.4,10.316.462,6.621-3.387,13.088-9.238,15.243a31.205,31.205,0,0,1-10.316,2.31C255.032,74.369,251.8,74.369,247.8,74.369Zm9.546-22.48h-12.01s-.154.924-.616,2.925c-.616,2.618-1.232,5.235-1.848,8.315-.154,1.078-1.232,6-1.232,6h2.925c1.848-.154,3.7-.154,5.389-.154a97.888,97.888,0,0,0,11.856-.77,14.007,14.007,0,0,0,8.161-5.389c1.694-2.31,2.156-4.927,1.078-7.083-1.078-2.31-3.541-3.541-6.775-3.7C262.115,51.889,259.806,51.889,257.342,51.889Z" transform="translate(126.483 25.097)" fill="#e0ff04"/>
    <path id="Path_11" data-name="Path 11" d="M262.264,46.1h-.924c-1.232,0-2.464-.154-3.541-.154H240.4v-.154c.77-3.387,1.54-6.929,2.31-10.316,1.078-5.389,2.31-10.624,3.541-16.013,0-.154.154-.308.308-.462h7.083c4.773,0,10.316,0,15.705.462,4.157.308,7.083,1.694,8.622,4.311,1.848,3.079,2,7.545.154,12.318C275.66,41.942,269.193,46.1,262.264,46.1Zm-8.315-5.543h4.927a34.837,34.837,0,0,0,4.157-.154,10.98,10.98,0,0,0,10.008-7.545,6.4,6.4,0,0,0-.462-5.389A6.115,6.115,0,0,0,268.115,25a14.969,14.969,0,0,0-2.771-.154H251.178s-.77,2.464-1.694,6.775c-.154.924-.462,2.156-.77,3.541-.308,1.694-1.232,5.389-1.232,5.389s3.849.154,5.389.154Z" transform="translate(129.722 10.255)" fill="#e0ff04"/>
    <path id="Path_12" data-name="Path 12" d="M126.632,89.05a22.6,22.6,0,0,1-9.854-2.156c-6.467-3.079-9.854-8.622-10.778-17.861v-3.7c1.078-17.553,5.7-29.409,14.781-38.493A26.714,26.714,0,0,1,139.412,19.3a26.349,26.349,0,0,1,10.316,2.156c7.083,3.079,9.392,9.238,10.008,13.858,2.31,17.091-2,32.18-12.934,44.96C142.338,85.508,134.485,89.05,126.632,89.05Zm13.7-64.361a22.915,22.915,0,0,0-18.785,9.7c-7.237,10.008-10.47,22.018-9.7,35.568.462,6.775,4.465,11.856,10.47,12.78a22.55,22.55,0,0,0,4.465.308,21.006,21.006,0,0,0,17.245-8.469c6.775-8.315,10.162-18.477,10.778-32.18V38.239c-.616-8.622-6-13.858-14.165-13.858Z" transform="translate(57.182 10.417)" fill="#e0ff04"/>
  </g>
</svg>
