<svg xmlns="http://www.w3.org/2000/svg" width="175" height="29.468" viewBox="0 0 175 29.468">
  <g id="LOGO" transform="translate(-0.054 0)">
    <path id="Path_1" data-name="Path 1" d="M425.6,29.871c-.88,0-1.76-.035-2.641-.035-.88-.035-1.76-.035-2.64-.035H419.3a6.448,6.448,0,0,1-1.831-.317,3.288,3.288,0,0,1-2.288-3.169,14.835,14.835,0,0,1,.563-4.084c.106-.387.176-.81.282-1.2,1.021-4.823,2.007-9.541,3.063-14.224.563-2.464,1.8-3.978,3.767-4.647a11.97,11.97,0,0,1,3.309-.493c1.021-.035,2.042-.07,3.1-.07.986,0,2.007,0,3.063.035a16.1,16.1,0,0,1,5.809.951c5.281,2.148,5.95,7.112,5.88,9.858a20.213,20.213,0,0,1-5.316,12.78,14.71,14.71,0,0,1-8.238,4.26A24.219,24.219,0,0,1,425.6,29.871ZM423.7,28.5h2.676c.634,0,1.162,0,1.655-.035a14.255,14.255,0,0,0,7.323-2.253,15.326,15.326,0,0,0,6.513-9.365,15.515,15.515,0,0,0,.528-7.253c-.775-3.978-3.556-6.232-8.027-6.478-1.549-.106-3.063-.106-4.366-.106h-3.626a11.623,11.623,0,0,0-2.465.176c-1.936.352-3.1,1.725-3.626,4.084-1.2,5.422-2.148,10-3.063,14.329-.282,1.373-.493,2.852-.7,4.647A1.837,1.837,0,0,0,418,28.287a4.88,4.88,0,0,0,1.408.211h1.866C421.73,28.533,423.7,28.5,423.7,28.5Z" transform="translate(-268.967 -1.037)"/>
    <path id="Path_2" data-name="Path 2" d="M4.225,29.522a4.5,4.5,0,0,1-2.288-.563,3.615,3.615,0,0,1-1.8-2.57A6.714,6.714,0,0,1,.387,23.4c.07-.246.106-.528.176-.775.775-3.767,1.584-7.6,2.394-11.266.387-1.866.775-3.7,1.2-5.563A6.394,6.394,0,0,1,7.428,1,5.761,5.761,0,0,1,10.069.335a4.373,4.373,0,0,1,2.957,1.021c1.091.986,1.443,2.324,1.091,4.19-.07.317-.106.669-.176,1.021l-.176.845L13.343,9.1l3.732-3.239L18.659,4.49c1.162-1.021,2.394-2.112,3.626-3.1A4.434,4.434,0,0,1,25.067.3a4.241,4.241,0,0,1,1.8.458,3.808,3.808,0,0,1,1.972,2.57,3.642,3.642,0,0,1-.845,3.063,28.374,28.374,0,0,1-2.535,2.5c-.352.317-.739.634-1.091.986-.634.6-2.077,1.831-2.746,2.429a7.194,7.194,0,0,0,.493,1.127c.422.951.81,1.9,1.232,2.887.775,1.866,1.584,3.8,2.465,5.668,1.373,2.993-.352,5.351-2.394,6.584a5.78,5.78,0,0,1-3.028.915,4.37,4.37,0,0,1-.951-.106,3.652,3.652,0,0,1-2.817-2.218l-.845-1.972c-.7-1.62-1.443-3.274-2.112-4.894-.106-.246-.563-1.408-.563-1.408-.317.176-1.267,1.056-1.514,1.2-.951.634-.845,1.338-1.021,2.112A19.391,19.391,0,0,1,9.33,26.353a5.681,5.681,0,0,1-5.105,3.169ZM14.575,19.347c1.021,2.359,2.112,4.823,3.133,7.253a2.522,2.522,0,0,0,2.464,1.62h.141a4.285,4.285,0,0,0,1.338-.246,4.585,4.585,0,0,0,2.922-2.429,4.506,4.506,0,0,0-.282-3.767c-.986-2.077-1.9-4.225-2.781-6.337-.458-1.091-.915-2.218-1.408-3.309,0-.07,0-.106,0-.141l.07-.07c1.443-1.267,2.887-2.535,4.225-3.732l.387-.352c.669-.6,1.373-1.232,2.007-1.9a2.625,2.625,0,0,0,.282-3.345A2.361,2.361,0,0,0,25.1,1.673a3,3,0,0,0-1.232.282,3.508,3.508,0,0,0-.845.493c-2.746,2.359-5,4.3-7.077,6.126-1.373,1.2-2.711,2.359-4.049,3.556l-.634.563c.106-.458.176-.915.282-1.338.458-2.148.951-4.366,1.3-6.549a2.651,2.651,0,0,0-.387-2.218,2.844,2.844,0,0,0-2.148-.88h-.246A4.668,4.668,0,0,0,5.457,5.722C4.929,8.186,4.4,10.616,3.908,13.045c-.458,2.042-.88,4.049-1.3,6.091-.422,1.9-.81,3.908-1.2,5.915a2.386,2.386,0,0,0,2.007,3.028,3.76,3.76,0,0,0,.88.106h0a4.373,4.373,0,0,0,4.19-3.1,32.745,32.745,0,0,0,.88-3.556l.141-.634a1.844,1.844,0,0,1,.6-1.127c.915-.775,1.831-1.584,2.781-2.429l.6-.528C13.484,16.847,14.575,19.347,14.575,19.347Z" transform="translate(0 -0.194)"/>
    <path id="Path_3" data-name="Path 3" d="M336.062,30.559a4.975,4.975,0,0,1-2.288-.528,3.454,3.454,0,0,1-1.76-3.591c.422-2.429.951-4.859,1.443-7.217l.282-1.338c.739-3.521,1.514-7.147,2.324-10.7a6.262,6.262,0,0,1,2.394-4.014,5.844,5.844,0,0,1,3.2-1.162c.7-.035,1.479-.035,2.429-.035h3.591c.669,0,1.338,0,1.972-.035.669,0,1.3-.035,1.972-.035.915,0,1.69.035,2.394.07,3.274.282,5.351,1.408,6.478,3.662,1.162,2.253.951,4.612-.6,7.358a9.6,9.6,0,0,1-2.676,3.028c-.352.211-.986.528-.986.528a7.6,7.6,0,0,1,1.056.739,4.43,4.43,0,0,1,1.021,3.732c-.035.669-.106,1.3-.176,1.972-.07.775-.141,1.549-.211,2.359a5.275,5.275,0,0,1-5.6,5.14h-.035c-2.183,0-3.521-.775-4.084-2.288A7.087,7.087,0,0,1,348,25.735v-.6c0-.634.07-1.267.106-1.936q.053-.528.106-1.056a1.361,1.361,0,0,0-.317-1.091,1.436,1.436,0,0,0-.986-.458c-1.056-.07-1.936-.106-2.746-.106h-1.267s-.141.7-.246,1.021a19.007,19.007,0,0,0-.423,1.936c-.246,1.091-.493,2.253-.845,3.309A5.523,5.523,0,0,1,336.062,30.559Zm8.626-11.372c.6,0,1.091,0,1.549.035a3.54,3.54,0,0,1,2.676,1.021,3.3,3.3,0,0,1,.634,2.57c-.141,1.373-.211,2.817-.282,4.049a1.875,1.875,0,0,0,1.338,2.007,5.071,5.071,0,0,0,1.8.317,4.006,4.006,0,0,0,4.26-4.084,37.544,37.544,0,0,1,.317-3.838c.317-2.148-.247-3.309-2.077-4.33-.211-.141-.739-.387-.951-.493l1.2-.6a5.627,5.627,0,0,0,3.239-2.5,12.451,12.451,0,0,0,1.373-3.521c.634-3.521-.81-5.668-4.366-6.372a22.594,22.594,0,0,0-4.612-.317h-1.549c-1.479,0-2.993.035-4.436.035-.845,0-1.69.035-2.535.035A4.574,4.574,0,0,0,337.47,7.04c-.88,3.873-1.69,7.816-2.5,11.618l-.528,2.5c-.07.387-.176.739-.246,1.127-.282,1.3-.6,2.676-.775,4.049a2.41,2.41,0,0,0,.387,2.007,2.318,2.318,0,0,0,1.619.81,5.968,5.968,0,0,0,.775.035,4.27,4.27,0,0,0,4.33-3.626c.422-1.8.81-3.591,1.162-5.351l.176-.915c0-.07.035-.106.035-.141h1.725A9.572,9.572,0,0,0,344.688,19.187Z" transform="translate(-215.056 -1.231)"/>
    <path id="Path_4" data-name="Path 4" d="M222.528,29.966H213.9c-2.007-.035-3.415-1.021-3.8-2.641a6.243,6.243,0,0,1-.035-2.676c1.127-5.492,2.324-11.161,3.7-17.392.493-2.253,1.443-3.7,2.957-4.471a6.439,6.439,0,0,1,2.711-.81c2.218-.106,4.612-.176,7.041-.176h2.288a16.9,16.9,0,0,1,5.774.845c2.464.986,3.7,2.676,3.661,5.105a7.863,7.863,0,0,1-2.641,6.161c-.282.211-1.338.986-1.338.986a15.014,15.014,0,0,1,1.232.915,5.735,5.735,0,0,1,1.232,5.281c-.915,4.647-4.19,7.71-9.189,8.591a21.669,21.669,0,0,1-2.993.282Zm-7.886-1.3h5.527c1.62,0,2.957,0,4.19-.035a17.748,17.748,0,0,0,3.732-.458c3.556-.845,5.88-2.817,6.9-5.88,1.127-3.415.317-5.774-2.57-7.429.422-.246.775-.493,1.2-.7a5.512,5.512,0,0,0,2.852-3.732,2.929,2.929,0,0,1,.141-.528,6.678,6.678,0,0,0,.176-.81,4.5,4.5,0,0,0-.7-3.7,6.149,6.149,0,0,0-4.507-2.077c-1.408-.141-2.957-.176-4.788-.176-1.373,0-2.746.035-4.119.07-1.091.035-2.253.07-3.345.07a3.354,3.354,0,0,0-2.887,1.443A9.094,9.094,0,0,0,215.169,7.4c-.458,1.831-.845,3.7-1.232,5.528-.106.458-.176.915-.282,1.373l-.387,1.9c-.634,3.063-1.3,6.232-1.9,9.33a2.706,2.706,0,0,0,.387,2.218,2.834,2.834,0,0,0,2.183.951h.458Z" transform="translate(-135.989 -1.166)"/>
    <path id="Path_5" data-name="Path 5" d="M93.11,29.468a13.782,13.782,0,0,1-5.492-1.091,9.471,9.471,0,0,1-6.267-8.907A18.214,18.214,0,0,1,87.089,4.894,17.96,17.96,0,0,1,97.264.141,14.044,14.044,0,0,1,99.341,0a13.776,13.776,0,0,1,6.3,1.549,9.86,9.86,0,0,1,5.351,7.534c.07.458.106.951.141,1.443,0,.211.035.458.035.669-.282,5.422-2.042,9.717-5.387,13.132a17.433,17.433,0,0,1-9.823,4.894A15.341,15.341,0,0,1,93.11,29.468Zm6.126-28.13A16.564,16.564,0,0,0,93.145,2.5a15.756,15.756,0,0,0-8.7,8.062,17.779,17.779,0,0,0-1.8,9.4,8.2,8.2,0,0,0,2.993,5.844,10.817,10.817,0,0,0,5.985,2.253,15.31,15.31,0,0,0,1.8.07,15.584,15.584,0,0,0,11.125-4.4,16.543,16.543,0,0,0,5.105-14.646A8.16,8.16,0,0,0,106,3.2a11.682,11.682,0,0,0-6.76-1.866Z" transform="translate(-52.657 0)"/>
    <path id="Path_6" data-name="Path 6" d="M296,29.651a4.033,4.033,0,0,1-3.556-1.936,4.385,4.385,0,0,1-.352-3.345c.493-2.253.951-4.507,1.443-6.76.739-3.38,1.443-6.76,2.183-10.14l.106-.458A11.133,11.133,0,0,1,297.232,3,5.958,5.958,0,0,1,301.949.5a4.781,4.781,0,0,1,1.021.106C305.224,1.1,306.245,2.718,306,5.5l-.317,1.584c-.282,1.408-.634,3.063-.986,4.718l-.74,3.486c-.669,3.1-1.338,6.3-2.042,9.4a5.832,5.832,0,0,1-4.471,4.788A6.481,6.481,0,0,1,296,29.651ZM302.02,1.8a4.454,4.454,0,0,0-.986.106,4.534,4.534,0,0,0-3.626,3.873c-1.127,5.246-2.218,10.386-3.45,16.125-.035.211-.106.422-.141.669a26.463,26.463,0,0,0-.528,2.993,2.247,2.247,0,0,0,1.936,2.676,4.372,4.372,0,0,0,.951.106,4.552,4.552,0,0,0,4.471-3.662c.915-4.154,1.8-8.379,2.676-12.5l.634-2.957c.247-1.091.458-2.148.634-3.028l.211-.986v-.07c0-1.9-.317-2.993-2.007-3.239A3.141,3.141,0,0,0,302.02,1.8Z" transform="translate(-189.111 -0.324)"/>
    <path id="Path_7" data-name="Path 7" d="M172.455,29.587a6.152,6.152,0,0,1-2.042-.387,3.854,3.854,0,0,1-2.148-4.3c.88-4.26,2.077-9.928,3.309-15.6.07-.282.106-.563.176-.845a28.261,28.261,0,0,1,1.232-4.577A5.677,5.677,0,0,1,178.158.4a5.373,5.373,0,0,1,1.056.106c2.253.493,3.169,1.831,3.169,4.577l-.176.845c-.176.88-.422,2.007-.634,3.169l-.106.528c-1.056,4.894-2.112,9.928-3.2,14.893a6.077,6.077,0,0,1-2.359,3.838A5.754,5.754,0,0,1,172.455,29.587ZM178.37,1.738a4.54,4.54,0,0,0-4.683,3.943c-.458,2.077-.915,4.19-1.338,6.232l-.528,2.429-.6,2.746c-.528,2.5-1.091,5.105-1.62,7.675a3.1,3.1,0,0,0,.493,2.605,2.641,2.641,0,0,0,2.112.915h0a6.876,6.876,0,0,0,.81-.07,4.709,4.709,0,0,0,4.014-4.119c.634-3.063,1.3-6.091,1.936-9.154.422-2.007.845-4.014,1.3-6.02.211-1.021.422-2.042.6-2.887l.176-.951v-.07c0-2.324-.775-3.274-2.676-3.274Z" transform="translate(-108.942 -0.259)"/>
    <path id="Path_8" data-name="Path 8" d="M440.1,35.481c.6-2.711,1.162-5.457,1.76-8.2l.6-2.852.176-.845c.176-.88.352-1.76.6-2.641,0-.035.07-.106.106-.141h1.267a16.88,16.88,0,0,1,2.957.176c2.816.422,4.119,2.183,3.873,5.175a15.056,15.056,0,0,1-1.479,5.563,6.783,6.783,0,0,1-5.985,3.767c-.176,0-.387.035-.634.035H440.98a6.519,6.519,0,0,1-.88-.035Zm4.19-13.379s-.035.176-.211,1.091c-.07.422-.176.845-.282,1.267-.07.246-.106.493-.176.739-.563,2.57-1.091,5.14-1.655,7.71-.07.246-.282,1.373-.282,1.373s1.514.035,1.8.035a6.276,6.276,0,0,0,4.683-2.218,13.1,13.1,0,0,0,1.936-6.056v-.07c0-2.359-.7-3.345-2.641-3.7-.458-.07-.951-.106-1.408-.141-.246,0-.458-.035-.7-.035C445.31,22.138,444.289,22.1,444.289,22.1Z" transform="translate(-285.119 -13.477)"/>
    <path id="Path_9" data-name="Path 9" d="M367.077,26.878H362.5c.423-1.972.915-4.049,1.338-6.161.07-.317.07-.317.352-.317h.035c.951.035,1.9.035,2.676.035h2.535a3.621,3.621,0,0,1,.6.035c2.007.387,2.324,1.338,2.394,2.112a3.658,3.658,0,0,1-1.866,3.662,9.355,9.355,0,0,1-2.605.6A6.522,6.522,0,0,1,367.077,26.878Zm-2.042-5.246s-.141.458-.352,1.479c-.035.141-.07.282-.106.458a1.028,1.028,0,0,0-.07.317c-.141.669-.282,1.655-.282,1.655s1.056.07,1.444.07h2.253a4.371,4.371,0,0,0,.951-.106h.035a2.293,2.293,0,0,0,2.148-2.359,1.3,1.3,0,0,0-1.373-1.443c-.352,0-.7,0-1.056-.035-.7,0-1.444-.035-2.148-.07C366.408,21.632,365.035,21.632,365.035,21.632Z" transform="translate(-234.839 -13.218)"/>
    <path id="Path_10" data-name="Path 10" d="M237.463,52.872H234.4l.176-.81c.246-1.127.458-2.253.7-3.345.07-.282.106-.563.176-.81.106-.422.211-.88.282-1.338,0-.035,0-.07.035-.07h3.309c.845,0,1.514,0,2.112.035,1.725.035,2.993,1.021,3.063,2.359a3.469,3.469,0,0,1-2.112,3.486,7.135,7.135,0,0,1-2.359.528C239.118,52.872,238.378,52.872,237.463,52.872Zm2.183-5.14H236.9s-.035.211-.141.669c-.141.6-.282,1.2-.422,1.9-.035.246-.282,1.373-.282,1.373h.669c.422-.035.845-.035,1.232-.035a22.378,22.378,0,0,0,2.711-.176,3.2,3.2,0,0,0,1.866-1.232,1.552,1.552,0,0,0,.246-1.62,1.668,1.668,0,0,0-1.549-.845C240.737,47.732,240.209,47.732,239.646,47.732Z" transform="translate(-151.84 -30.129)"/>
    <path id="Path_11" data-name="Path 11" d="M245.4,25.2h-.211c-.282,0-.563-.035-.81-.035H240.4v-.035c.176-.775.352-1.584.528-2.359.246-1.232.528-2.429.81-3.662,0-.035.035-.07.07-.106h1.619c1.091,0,2.359,0,3.591.106a2.307,2.307,0,0,1,1.972.986,3.243,3.243,0,0,1,.035,2.817A3.968,3.968,0,0,1,245.4,25.2Zm-1.9-1.267h1.127a7.966,7.966,0,0,0,.951-.035,2.511,2.511,0,0,0,2.288-1.725,1.464,1.464,0,0,0-.106-1.232,1.4,1.4,0,0,0-1.021-.563,3.423,3.423,0,0,0-.634-.035h-3.239s-.176.563-.387,1.549c-.035.211-.106.493-.176.81-.07.387-.282,1.232-.282,1.232s.88.035,1.232.035Z" transform="translate(-155.727 -12.311)"/>
    <path id="Path_12" data-name="Path 12" d="M110.718,35.249a5.167,5.167,0,0,1-2.253-.493c-1.479-.7-2.253-1.972-2.464-4.084v-.845c.246-4.014,1.3-6.725,3.38-8.8a6.108,6.108,0,0,1,4.26-1.725,6.025,6.025,0,0,1,2.359.493,3.849,3.849,0,0,1,2.288,3.169,12.583,12.583,0,0,1-2.957,10.28A6.252,6.252,0,0,1,110.718,35.249Zm3.133-14.717a5.24,5.24,0,0,0-4.3,2.218,12.331,12.331,0,0,0-2.218,8.133,2.94,2.94,0,0,0,2.394,2.922,5.156,5.156,0,0,0,1.021.07,4.8,4.8,0,0,0,3.943-1.936,11.9,11.9,0,0,0,2.464-7.358V23.63a3.106,3.106,0,0,0-3.239-3.169Z" transform="translate(-68.646 -12.505)"/>
  </g>
</svg>
