<svg xmlns="http://www.w3.org/2000/svg" width="23.239" height="28.343" viewBox="0 0 23.239 28.343">
  <path id="shopping_bag" data-name="shopping bag" d="M7.838,5.468V5.377h0V5.286h0A4.106,4.106,0,0,1,8.931,2.552a4.188,4.188,0,0,1,2.734-1.185h0A4.106,4.106,0,0,1,14.4,2.461a4.188,4.188,0,0,1,1.185,2.734v.273ZM7.108,9.387a.784.784,0,0,1,.729.729.784.784,0,0,1-.729.729.784.784,0,0,1-.729-.729.671.671,0,0,1,.729-.729Zm9.113,0a.784.784,0,0,1,.729.729.729.729,0,1,1-1.458,0,.719.719,0,0,1,.729-.729Zm-.729-1.094V6.926H7.838V8.293a1.9,1.9,0,0,1,1.185,1.823A1.869,1.869,0,0,1,7.108,12.03a1.869,1.869,0,0,1-1.914-1.914A1.994,1.994,0,0,1,6.379,8.293V6.926H3.554c-.182,0-.273,0-.365.091a.473.473,0,0,0-.365.182h0l-.091.091c0,.091-.091.182-.182.273,0,.182-.091.273-.091.456l-1,17.862c0,.182,0,.273.091.365s.091.273.273.365h0a1.258,1.258,0,0,0,.365.273.548.548,0,0,0,.365.091H20.87c.182,0,.273,0,.365-.091s.273-.091.365-.273a1.258,1.258,0,0,0,.273-.365.548.548,0,0,0,.091-.365L20.87,8.02a.822.822,0,0,0-.091-.456c-.091-.091-.091-.273-.273-.365a1.258,1.258,0,0,0-.365-.273.683.683,0,0,0-.456-.091H16.86V8.2a1.9,1.9,0,0,1,1.185,1.823,1.914,1.914,0,1,1-3.828,0,2.3,2.3,0,0,1,1.276-1.732Zm1.458-2.825V5.286A5.29,5.29,0,0,0,11.665,0h-.091A5.556,5.556,0,0,0,7.838,1.549,5.474,5.474,0,0,0,6.379,5.286h0v.091h0v.091H3.554a2.7,2.7,0,0,0-.911.182,3.181,3.181,0,0,0-.82.547l-.091.091h0a3.2,3.2,0,0,0-.456.729,3.238,3.238,0,0,0-.182.911L0,25.882a2.7,2.7,0,0,0,.182.911,2.152,2.152,0,0,0,.547.82h0a2.152,2.152,0,0,0,.82.547,3.238,3.238,0,0,0,.911.182H20.779a2.7,2.7,0,0,0,.911-.182,1.984,1.984,0,0,0,.729-.456h0l.091-.091a2.152,2.152,0,0,0,.547-.82,3.238,3.238,0,0,0,.182-.911l-1-17.862a2.7,2.7,0,0,0-.182-.911,2.152,2.152,0,0,0-.547-.82h0a2.152,2.152,0,0,0-.82-.547,3.238,3.238,0,0,0-.911-.182H16.951Z" fill="#231f20" fill-rule="evenodd"/>
</svg>
