<svg xmlns="http://www.w3.org/2000/svg" width="24.082" height="19.27" viewBox="0 0 24.082 19.27">
  <path id="WISHLIST_ICON" data-name="WISHLIST ICON" d="M11.964,17.952c.614-.46,1.227-.92,1.917-1.38,3.758-2.608,8.82-6.212,8.82-9.817a5.485,5.485,0,0,0-2.3-4.678,4.926,4.926,0,0,0-2.3-.844,4.983,4.983,0,0,0-2.377.307,5.147,5.147,0,0,0-3.144,3.835.6.6,0,0,1-.69.46.691.691,0,0,1-.46-.46A4.94,4.94,0,0,0,8.206,1.539a5.107,5.107,0,0,0-2.377-.307,4.926,4.926,0,0,0-2.3.844,5.306,5.306,0,0,0-2.3,4.678c0,3.681,5.062,7.209,8.82,9.817a20.745,20.745,0,0,1,1.917,1.38Zm2.684-.383q-1.265.92-2.3,1.611a.7.7,0,0,1-.767,0c-.614-.46-1.457-1-2.3-1.611C5.369,14.73,0,11.049,0,6.754A6.577,6.577,0,0,1,2.838,1.079a6.308,6.308,0,0,1,2.838-1A5.791,5.791,0,0,1,8.666.466a6.235,6.235,0,0,1,3.374,3.068A6.235,6.235,0,0,1,15.415.466,6.589,6.589,0,0,1,18.406.082a7.385,7.385,0,0,1,2.838,1,6.4,6.4,0,0,1,2.838,5.675C24,11.049,18.636,14.73,14.648,17.568Z" transform="translate(0 -0.023)" fill="#231f20" fill-rule="evenodd"/>
</svg>
